<svg width="1847" height="457" viewBox="0 0 1847 457" fill="none" xmlns="http://www.w3.org/2000/svg">
<g clip-path="url(#clip0_104_8)">
<path d="M2.4375 451V87.3636H159.398C186.386 87.3636 210.001 92.276 230.243 102.101C250.484 111.926 266.228 126.071 277.473 144.537C288.718 163.003 294.341 185.138 294.341 210.943C294.341 236.985 288.541 258.943 276.94 276.817C265.458 294.691 249.301 308.185 228.467 317.3C207.752 326.414 183.545 330.972 155.847 330.972H62.0966V254.267H135.96C147.561 254.267 157.445 252.847 165.612 250.006C173.898 247.046 180.231 242.371 184.611 235.979C189.109 229.587 191.358 221.241 191.358 210.943C191.358 200.527 189.109 192.063 184.611 185.553C180.231 178.924 173.898 174.071 165.612 170.993C157.445 167.797 147.561 166.199 135.96 166.199H101.159V451H2.4375ZM215.506 284.097L306.415 451H199.17L110.392 284.097H215.506Z" fill="black"/>
<path d="M339.438 452V88.3636H601.511V167.909H438.159V230.409H588.017V309.955H438.159V372.455H600.801V452H339.438Z" fill="black"/>
<path d="M962.926 221.727H862.784C862.074 213.441 860.18 205.925 857.102 199.178C854.143 192.43 850 186.63 844.673 181.777C839.465 176.805 833.132 173.018 825.675 170.413C818.217 167.691 809.754 166.33 800.284 166.33C783.712 166.33 769.685 170.354 758.203 178.403C746.839 186.453 738.198 197.994 732.28 213.027C726.48 228.06 723.58 246.112 723.58 267.182C723.58 289.436 726.539 308.079 732.457 323.112C738.494 338.027 747.195 349.272 758.558 356.848C769.922 364.305 783.594 368.034 799.574 368.034C808.688 368.034 816.856 366.91 824.077 364.661C831.297 362.293 837.571 358.92 842.898 354.54C848.224 350.16 852.545 344.893 855.859 338.737C859.292 332.464 861.6 325.42 862.784 317.608L962.926 318.318C961.742 333.706 957.422 349.391 949.964 365.371C942.507 381.232 931.913 395.911 918.182 409.405C904.569 422.781 887.701 433.553 867.578 441.72C847.455 449.888 824.077 453.972 797.443 453.972C764.062 453.972 734.115 446.81 707.599 432.487C681.203 418.164 660.31 397.094 644.922 369.277C629.652 341.46 622.017 307.428 622.017 267.182C622.017 226.699 629.83 192.608 645.455 164.909C661.08 137.092 682.15 116.081 708.665 101.876C735.18 87.5535 764.773 80.392 797.443 80.392C820.407 80.392 841.536 83.5289 860.831 89.8025C880.125 96.0762 897.053 105.25 911.612 117.324C926.172 129.279 937.891 144.017 946.768 161.536C955.646 179.054 961.032 199.118 962.926 221.727ZM977.715 449V85.3636H1239.79V164.909H1076.44V227.409H1226.29V306.955H1076.44V369.455H1239.08V449H977.715ZM1258.75 449V85.3636H1415.71C1442.7 85.3636 1466.31 90.6903 1486.56 101.344C1506.8 111.997 1522.54 126.971 1533.79 146.266C1545.03 165.56 1550.65 188.11 1550.65 213.915C1550.65 239.956 1544.85 262.506 1533.25 281.564C1521.77 300.622 1505.61 315.3 1484.78 325.598C1464.06 335.896 1439.86 341.045 1412.16 341.045H1318.41V264.341H1392.27C1403.87 264.341 1413.76 262.329 1421.92 258.304C1430.21 254.161 1436.54 248.302 1440.92 240.726C1445.42 233.15 1447.67 224.213 1447.67 213.915C1447.67 203.498 1445.42 194.62 1440.92 187.281C1436.54 179.824 1430.21 174.142 1421.92 170.236C1413.76 166.211 1403.87 164.199 1392.27 164.199H1357.47V449H1258.75ZM1614.69 454.909C1600.41 454.909 1588.16 449.923 1577.94 439.952C1567.85 429.857 1562.86 417.608 1562.98 403.205C1562.86 389.17 1567.85 377.168 1577.94 367.196C1588.16 357.224 1600.41 352.239 1614.69 352.239C1628.23 352.239 1640.17 357.224 1650.51 367.196C1660.98 377.168 1666.27 389.17 1666.39 403.205C1666.27 412.807 1663.75 421.547 1658.82 429.426C1654.02 437.182 1647.74 443.399 1639.99 448.077C1632.23 452.632 1623.8 454.909 1614.69 454.909Z" fill="black"/>
</g>
<defs>
<clipPath id="clip0_104_8">
<rect width="1847" height="457" fill="white"/>
</clipPath>
</defs>
</svg>
